<?xml version="1.0" encoding="UTF-8" standalone="no"?>
<!-- Created with Inkscape (http://www.inkscape.org/) -->

<svg
   width="1000"
   height="1000"
   viewBox="0 0 264.58333 264.58333"
   version="1.1"
   id="svg1"
   inkscape:version="1.3.2 (091e20e, 2023-11-25, custom)"
   sodipodi:docname="common_resource.svg"
   inkscape:export-filename="..\Sprites\Resources\common_resource.svg"
   inkscape:export-xdpi="288"
   inkscape:export-ydpi="288"
   xmlns:inkscape="http://www.inkscape.org/namespaces/inkscape"
   xmlns:sodipodi="http://sodipodi.sourceforge.net/DTD/sodipodi-0.dtd"
   xmlns="http://www.w3.org/2000/svg"
   xmlns:svg="http://www.w3.org/2000/svg">
  <sodipodi:namedview
     id="namedview1"
     pagecolor="#505050"
     bordercolor="#eeeeee"
     borderopacity="1"
     inkscape:showpageshadow="0"
     inkscape:pageopacity="0"
     inkscape:pagecheckerboard="0"
     inkscape:deskcolor="#505050"
     inkscape:document-units="mm"
     showgrid="true"
     showguides="false"
     inkscape:zoom="1"
     inkscape:cx="646.5"
     inkscape:cy="484"
     inkscape:window-width="2560"
     inkscape:window-height="1494"
     inkscape:window-x="-11"
     inkscape:window-y="-11"
     inkscape:window-maximized="1"
     inkscape:current-layer="layer1">
    <inkscape:grid
       id="grid2"
       units="mm"
       originx="0"
       originy="0"
       spacingx="0.99999999"
       spacingy="0.99999999"
       empcolor="#0099e5"
       empopacity="0.30196078"
       color="#0099e5"
       opacity="0.14901961"
       empspacing="5"
       dotted="false"
       gridanglex="30"
       gridanglez="30"
       visible="true" />
  </sodipodi:namedview>
  <defs
     id="defs1" />
  <g
     inkscape:label="Layer 1"
     inkscape:groupmode="layer"
     id="layer1">
    <path
       id="path2"
       style="fill:#55d400;stroke-width:0.363571"
       d="m 133.68802,3.4548803 c -1.15575,0.938706 -2.1642,2.0989914 -3.26431,3.1212185 C 88.628352,47.592984 46.832995,88.60987 5.0376379,129.62676 c -0.40245,0.54138 0.51189,0.91255 0.754273,1.31681 41.5317781,42.80455 83.0635571,85.6091 124.5953291,128.41366 0.54173,0.36119 0.88347,-0.53541 1.28704,-0.77439 42.55602,-41.76401 85.11203,-83.52801 127.66804,-125.29202 0.40245,-0.53928 -0.51296,-0.9114 -0.75426,-1.31487 C 217.05693,89.170749 175.5258,46.365549 133.99467,3.5603491 c -0.0783,-0.079547 -0.19449,-0.1295486 -0.30665,-0.1054688 z" />
    <path
       id="path2-3"
       style="fill:#66ff00;stroke-width:0.305262"
       d="m 133.45143,24.29419 c -0.97322,0.785867 -1.82242,1.757236 -2.74878,2.613025 -35.194648,34.338549 -70.389294,68.6771 -105.58394,103.015645 -0.338892,0.45323 0.431047,0.76397 0.635151,1.1024 34.972693,35.83515 69.945386,71.6703 104.918079,107.50545 0.45617,0.30239 0.74394,-0.44822 1.08377,-0.64829 35.83519,-34.96403 71.67036,-69.92805 107.50552,-104.89209 0.33891,-0.45146 -0.43195,-0.763 -0.63514,-1.10078 C 203.65396,96.053872 168.68181,60.21818 133.70966,24.382487 c -0.0658,-0.0666 -0.16378,-0.108456 -0.25823,-0.0883 z" />
    <circle
       style="fill:#99ff55;stroke-width:0.640038"
       id="path3"
       cx="132.18994"
       cy="131.44534"
       r="42.333332" />
  </g>
</svg>
